<mxfile host="Electron" modified="2023-10-01T01:24:02.748Z" agent="Mozilla/5.0 (X11; Linux x86_64) AppleWebKit/537.36 (KHTML, like Gecko) draw.io/22.0.0 Chrome/114.0.5735.289 Electron/25.8.3 Safari/537.36" etag="B52HwZJLrWtZ7XzcQy3J" version="22.0.0" type="device">
  <diagram name="Page-1" id="fo18u6Ch1KVScq3Fo-Wy">
    <mxGraphModel dx="3036" dy="1822" grid="1" gridSize="9.8425" guides="1" tooltips="1" connect="1" arrows="1" fold="1" page="1" pageScale="1" pageWidth="2339" pageHeight="3311" math="0" shadow="0">
      <root>
        <object label="" description="Use Edit-&gt;Edit Data... on the document to configure the &quot;description&quot; property and modify this text.&#xa;When creating a new page, use the Extras-&gt;Edit Diagram... function to copy and paste the raw code for the template page." rev="A0" size="A1" scale="1:1" author="John Doe" part_num="" dwg_no="" serial_num="" extra_label="Part #" id="0">
          <mxCell />
        </object>
        <object label="Title Block" id="1">
          <mxCell style="locked=1;" parent="0" />
        </object>
        <mxCell id="BJZrzUYKFe9HMTDBOYGV-1" value="" style="rounded=0;whiteSpace=wrap;html=1;fillColor=none;movable=1;resizable=1;rotatable=1;deletable=1;editable=1;locked=0;connectable=1;" parent="1" vertex="1">
          <mxGeometry x="19.685" y="19.685" width="2299.208" height="3271.647" as="geometry" />
        </mxCell>
        <mxCell id="BJZrzUYKFe9HMTDBOYGV-2" value="" style="rounded=0;whiteSpace=wrap;html=1;fillColor=none;strokeWidth=1;movable=1;resizable=1;rotatable=1;deletable=1;editable=1;locked=0;connectable=1;" parent="1" vertex="1">
          <mxGeometry x="39.37" y="39.37" width="2259.8379999999997" height="3232.277" as="geometry" />
        </mxCell>
        <mxCell id="h7L3MlKvrl_dhOmhB3lf-10" value="Prepared with: draw.io v22.0.0" style="strokeWidth=1;shadow=0;dashed=0;align=center;html=1;shape=mxgraph.mockup.text.textBox;fontColor=#666666;align=left;fontSize=17;spacingLeft=4;spacingTop=-3;whiteSpace=wrap;strokeColor=#333333;mainText=;fillColor=none;fontFamily=Open Sans;movable=1;resizable=1;rotatable=1;deletable=1;editable=1;locked=0;connectable=1;" parent="1" vertex="1">
          <mxGeometry x="1740.7100000000003" y="3241.020000000001" width="280" height="30" as="geometry" />
        </mxCell>
        <object label="&lt;div align=&quot;left&quot;&gt;Sheet %pagenumber%/%pagecount%&lt;/div&gt;" placeholders="1" id="h7L3MlKvrl_dhOmhB3lf-12">
          <mxCell style="strokeWidth=1;shadow=0;dashed=0;align=left;html=1;shape=mxgraph.mockup.text.textBox;fontColor=#666666;align=left;fontSize=17;spacingLeft=4;spacingTop=-3;whiteSpace=wrap;strokeColor=#333333;mainText=;fillColor=none;fontFamily=Open Sans;movable=1;resizable=1;rotatable=1;deletable=1;editable=1;locked=0;connectable=1;" parent="1" vertex="1">
            <mxGeometry x="1580.7100000000003" y="3241.020000000001" width="160" height="30" as="geometry" />
          </mxCell>
        </object>
        <object label="Date: &lt;font style=&quot;font-size: 17px;&quot;&gt;%date{ddd mmm dd yyyy HH:MM:ss}%&lt;/font&gt;" placeholders="1" id="h7L3MlKvrl_dhOmhB3lf-13">
          <mxCell style="strokeWidth=1;shadow=0;dashed=0;align=center;html=1;shape=mxgraph.mockup.text.textBox;fontColor=#666666;align=left;fontSize=17;spacingLeft=4;spacingTop=-3;whiteSpace=wrap;strokeColor=#333333;mainText=;fillColor=none;fontFamily=Open Sans;movable=1;resizable=1;rotatable=1;deletable=1;editable=1;locked=0;connectable=1;" parent="1" vertex="1">
            <mxGeometry x="2020.7100000000003" y="3241.020000000001" width="278.5" height="30" as="geometry" />
          </mxCell>
        </object>
        <object label="&lt;b&gt;Title: %page%&lt;/b&gt;" placeholders="1" id="h7L3MlKvrl_dhOmhB3lf-14">
          <mxCell style="strokeWidth=1;shadow=0;dashed=0;align=center;html=1;shape=mxgraph.mockup.text.textBox;fontColor=#666666;align=left;fontSize=17;spacingLeft=4;spacingTop=-3;whiteSpace=wrap;strokeColor=#333333;mainText=;fillColor=none;fontFamily=Open Sans;movable=1;resizable=1;rotatable=1;deletable=1;editable=1;locked=0;connectable=1;" parent="1" vertex="1">
            <mxGeometry x="1580.7100000000003" y="3151.02" width="600" height="30" as="geometry" />
          </mxCell>
        </object>
        <object label="Filename: %filename%" placeholders="1" id="h7L3MlKvrl_dhOmhB3lf-15">
          <mxCell style="strokeWidth=1;shadow=0;dashed=0;align=center;html=1;shape=mxgraph.mockup.text.textBox;fontColor=#666666;align=left;fontSize=17;spacingLeft=4;spacingTop=-3;whiteSpace=wrap;strokeColor=#333333;mainText=;fillColor=none;fontFamily=Open Sans;movable=1;resizable=1;rotatable=1;deletable=1;editable=1;locked=0;connectable=1;" parent="1" vertex="1">
            <mxGeometry x="1580.7100000000003" y="3181.020000000001" width="400" height="30" as="geometry" />
          </mxCell>
        </object>
        <object label="&lt;div align=&quot;left&quot;&gt;%description%&lt;/div&gt;" placeholders="1" id="h7L3MlKvrl_dhOmhB3lf-16">
          <mxCell style="strokeWidth=1;shadow=0;dashed=0;html=1;shape=mxgraph.mockup.text.textBox;fontColor=#666666;align=left;verticalAlign=top;fontSize=12;spacingLeft=4;spacingTop=-3;whiteSpace=wrap;strokeColor=#333333;mainText=;fillColor=none;fontFamily=Open Sans;movable=1;resizable=1;rotatable=1;deletable=1;editable=1;locked=0;connectable=1;" parent="1" vertex="1">
            <mxGeometry x="1580.7100000000003" y="3061.02" width="718.5" height="90" as="geometry" />
          </mxCell>
        </object>
        <object label="&lt;b&gt;Rev: %rev%&lt;br&gt;&lt;/b&gt;" placeholders="1" id="EyKvBmyPNv_MzgSUc5b6-1">
          <mxCell style="strokeWidth=1;shadow=0;dashed=0;align=center;html=1;shape=mxgraph.mockup.text.textBox;fontColor=#666666;align=left;fontSize=17;spacingLeft=4;spacingTop=-3;whiteSpace=wrap;strokeColor=#333333;mainText=;fillColor=none;fontFamily=Open Sans;movable=1;resizable=1;rotatable=1;deletable=1;editable=1;locked=0;connectable=1;" parent="1" vertex="1">
            <mxGeometry x="2180.71" y="3151.02" width="118.5" height="30" as="geometry" />
          </mxCell>
        </object>
        <object label="&lt;div align=&quot;left&quot;&gt;Size: %size%&lt;/div&gt;" placeholders="1" id="kxruepuoSyuf0zwoeRE9-5">
          <mxCell style="strokeWidth=1;shadow=0;dashed=0;align=left;html=1;shape=mxgraph.mockup.text.textBox;fontColor=#666666;align=left;fontSize=17;spacingLeft=4;spacingTop=-3;whiteSpace=wrap;strokeColor=#333333;mainText=;fillColor=none;fontFamily=Open Sans;movable=1;resizable=1;rotatable=1;deletable=1;editable=1;locked=0;connectable=1;" parent="1" vertex="1">
            <mxGeometry x="2100.71" y="3211.020000000001" width="198.5" height="30" as="geometry" />
          </mxCell>
        </object>
        <object label="&lt;div align=&quot;left&quot;&gt;Scale: %scale%&lt;/div&gt;" placeholders="1" id="kxruepuoSyuf0zwoeRE9-6">
          <mxCell style="strokeWidth=1;shadow=0;dashed=0;align=left;html=1;shape=mxgraph.mockup.text.textBox;fontColor=#666666;align=left;fontSize=17;spacingLeft=4;spacingTop=-3;whiteSpace=wrap;strokeColor=#333333;mainText=;fillColor=none;fontFamily=Open Sans;movable=1;resizable=1;rotatable=1;deletable=1;editable=1;locked=0;connectable=1;" parent="1" vertex="1">
            <mxGeometry x="1980.7100000000003" y="3211.020000000001" width="120" height="30" as="geometry" />
          </mxCell>
        </object>
        <object label="Prepared By: %author%" placeholders="1" id="kxruepuoSyuf0zwoeRE9-7">
          <mxCell style="strokeWidth=1;shadow=0;dashed=0;align=center;html=1;shape=mxgraph.mockup.text.textBox;fontColor=#666666;align=left;fontSize=17;spacingLeft=4;spacingTop=-3;whiteSpace=wrap;strokeColor=#333333;mainText=;fillColor=none;fontFamily=Open Sans;movable=1;resizable=1;rotatable=1;deletable=1;editable=1;locked=0;connectable=1;" parent="1" vertex="1">
            <mxGeometry x="1580.7100000000003" y="3211.020000000001" width="400" height="30" as="geometry" />
          </mxCell>
        </object>
        <object label="%extra_label% %dwg_no%%part_num%%serial_num%" placeholders="1" id="kxruepuoSyuf0zwoeRE9-8">
          <mxCell style="strokeWidth=1;shadow=0;dashed=0;align=center;html=1;shape=mxgraph.mockup.text.textBox;fontColor=#666666;align=left;fontSize=17;spacingLeft=4;spacingTop=-3;whiteSpace=wrap;strokeColor=#333333;mainText=;fillColor=none;fontFamily=Open Sans;movable=1;resizable=1;rotatable=1;deletable=1;editable=1;locked=0;connectable=1;" parent="1" vertex="1">
            <mxGeometry x="1980.7100000000003" y="3181.020000000001" width="318.5" height="30" as="geometry" />
          </mxCell>
        </object>
        <mxCell id="BJZrzUYKFe9HMTDBOYGV-4" value="" style="endArrow=none;html=1;rounded=0;strokeWidth=3;targetPerimeterSpacing=0;movable=1;resizable=1;rotatable=1;deletable=1;editable=1;locked=0;connectable=1;" parent="1" edge="1">
          <mxGeometry width="50" height="50" relative="1" as="geometry">
            <mxPoint x="1169.2913" y="59.13" as="sourcePoint" />
            <mxPoint x="1169.2913" y="19.71" as="targetPoint" />
          </mxGeometry>
        </mxCell>
        <mxCell id="BJZrzUYKFe9HMTDBOYGV-11" value="" style="endArrow=none;html=1;rounded=0;strokeWidth=3;movable=1;resizable=1;rotatable=1;deletable=1;editable=1;locked=0;connectable=1;" parent="1" edge="1">
          <mxGeometry width="50" height="50" relative="1" as="geometry">
            <mxPoint x="20.10000000000001" y="1655.512" as="sourcePoint" />
            <mxPoint x="59" y="1655.512" as="targetPoint" />
          </mxGeometry>
        </mxCell>
        <mxCell id="BJZrzUYKFe9HMTDBOYGV-27" value="" style="endArrow=none;html=1;rounded=0;movable=1;resizable=1;rotatable=1;deletable=1;editable=1;locked=0;connectable=1;" parent="1" edge="1">
          <mxGeometry width="50" height="50" relative="1" as="geometry">
            <mxPoint x="1366.08" y="39.71" as="sourcePoint" />
            <mxPoint x="1366.08" y="19.709999999999994" as="targetPoint" />
          </mxGeometry>
        </mxCell>
        <mxCell id="BJZrzUYKFe9HMTDBOYGV-34" value="" style="endArrow=none;html=1;rounded=0;movable=1;resizable=1;rotatable=1;deletable=1;editable=1;locked=0;connectable=1;" parent="1" edge="1">
          <mxGeometry width="50" height="50" relative="1" as="geometry">
            <mxPoint x="1562.9324999999997" y="39.71" as="sourcePoint" />
            <mxPoint x="1562.9324999999997" y="19.709999999999994" as="targetPoint" />
          </mxGeometry>
        </mxCell>
        <mxCell id="BJZrzUYKFe9HMTDBOYGV-35" value="" style="endArrow=none;html=1;rounded=0;movable=1;resizable=1;rotatable=1;deletable=1;editable=1;locked=0;connectable=1;" parent="1" edge="1">
          <mxGeometry width="50" height="50" relative="1" as="geometry">
            <mxPoint x="972.375" y="39.71" as="sourcePoint" />
            <mxPoint x="972.375" y="19.709999999999994" as="targetPoint" />
          </mxGeometry>
        </mxCell>
        <mxCell id="BJZrzUYKFe9HMTDBOYGV-36" value="" style="endArrow=none;html=1;rounded=0;movable=1;resizable=1;rotatable=1;deletable=1;editable=1;locked=0;connectable=1;" parent="1" edge="1">
          <mxGeometry width="50" height="50" relative="1" as="geometry">
            <mxPoint x="775.5274999999999" y="39.71" as="sourcePoint" />
            <mxPoint x="775.5274999999999" y="19.709999999999994" as="targetPoint" />
          </mxGeometry>
        </mxCell>
        <mxCell id="BJZrzUYKFe9HMTDBOYGV-45" value="" style="endArrow=none;html=1;rounded=0;movable=1;resizable=1;rotatable=1;deletable=1;editable=1;locked=0;connectable=1;" parent="1" edge="1">
          <mxGeometry width="50" height="50" relative="1" as="geometry">
            <mxPoint x="19.50000000000001" y="1458.6599999999999" as="sourcePoint" />
            <mxPoint x="39.55000000000002" y="1458.6599999999999" as="targetPoint" />
          </mxGeometry>
        </mxCell>
        <mxCell id="BJZrzUYKFe9HMTDBOYGV-46" value="" style="endArrow=none;html=1;rounded=0;movable=1;resizable=1;rotatable=1;deletable=1;editable=1;locked=0;connectable=1;" parent="1" edge="1">
          <mxGeometry width="50" height="50" relative="1" as="geometry">
            <mxPoint x="19.50250000000002" y="1852.3624999999997" as="sourcePoint" />
            <mxPoint x="39.552500000000016" y="1852.3624999999997" as="targetPoint" />
          </mxGeometry>
        </mxCell>
        <mxCell id="BJZrzUYKFe9HMTDBOYGV-49" value="G" style="text;html=1;strokeColor=none;fillColor=none;align=center;verticalAlign=middle;whiteSpace=wrap;rounded=0;fontFamily=Open Sans;fontSize=18;movable=1;resizable=1;rotatable=1;deletable=1;editable=1;locked=0;connectable=1;" parent="1" vertex="1">
          <mxGeometry x="19.69" y="1350.3899999999999" width="19.685" height="19.685" as="geometry" />
        </mxCell>
        <mxCell id="BJZrzUYKFe9HMTDBOYGV-52" value="H" style="text;html=1;strokeColor=none;fillColor=none;align=center;verticalAlign=middle;whiteSpace=wrap;rounded=0;fontFamily=Open Sans;fontSize=18;movable=1;resizable=1;rotatable=1;deletable=1;editable=1;locked=0;connectable=1;" parent="1" vertex="1">
          <mxGeometry x="19.682499999999997" y="1547.2424999999998" width="19.685" height="19.685" as="geometry" />
        </mxCell>
        <mxCell id="BJZrzUYKFe9HMTDBOYGV-53" value="J" style="text;html=1;strokeColor=none;fillColor=none;align=center;verticalAlign=middle;whiteSpace=wrap;rounded=0;fontFamily=Open Sans;fontSize=18;movable=1;resizable=1;rotatable=1;deletable=1;editable=1;locked=0;connectable=1;" parent="1" vertex="1">
          <mxGeometry x="19.685000000000002" y="1744.0949999999996" width="19.685" height="19.685" as="geometry" />
        </mxCell>
        <mxCell id="BJZrzUYKFe9HMTDBOYGV-54" value="K" style="text;html=1;strokeColor=none;fillColor=none;align=center;verticalAlign=middle;whiteSpace=wrap;rounded=0;fontFamily=Open Sans;fontSize=18;movable=1;resizable=1;rotatable=1;deletable=1;editable=1;locked=0;connectable=1;" parent="1" vertex="1">
          <mxGeometry x="19.6875" y="1940.9399999999998" width="19.685" height="19.685" as="geometry" />
        </mxCell>
        <mxCell id="BJZrzUYKFe9HMTDBOYGV-59" value="4" style="text;html=1;strokeColor=none;fillColor=none;align=center;verticalAlign=middle;whiteSpace=wrap;rounded=0;fontFamily=Open Sans;fontSize=18;movable=1;resizable=1;rotatable=1;deletable=1;editable=1;locked=0;connectable=1;" parent="1" vertex="1">
          <mxGeometry x="667.2625" y="19.872500000000002" width="19.685" height="19.685" as="geometry" />
        </mxCell>
        <mxCell id="BJZrzUYKFe9HMTDBOYGV-60" value="5" style="text;html=1;strokeColor=none;fillColor=none;align=center;verticalAlign=middle;whiteSpace=wrap;rounded=0;fontFamily=Open Sans;fontSize=18;movable=1;resizable=1;rotatable=1;deletable=1;editable=1;locked=0;connectable=1;" parent="1" vertex="1">
          <mxGeometry x="864.115" y="19.875" width="19.685" height="19.685" as="geometry" />
        </mxCell>
        <mxCell id="BJZrzUYKFe9HMTDBOYGV-61" value="6" style="text;html=1;strokeColor=none;fillColor=none;align=center;verticalAlign=middle;whiteSpace=wrap;rounded=0;fontFamily=Open Sans;fontSize=18;movable=1;resizable=1;rotatable=1;deletable=1;editable=1;locked=0;connectable=1;" parent="1" vertex="1">
          <mxGeometry x="1060.9575" y="19.867500000000007" width="19.685" height="19.685" as="geometry" />
        </mxCell>
        <mxCell id="BJZrzUYKFe9HMTDBOYGV-62" value="7" style="text;html=1;strokeColor=none;fillColor=none;align=center;verticalAlign=middle;whiteSpace=wrap;rounded=0;fontFamily=Open Sans;fontSize=18;movable=1;resizable=1;rotatable=1;deletable=1;editable=1;locked=0;connectable=1;" parent="1" vertex="1">
          <mxGeometry x="1257.81" y="19.86999999999999" width="19.685" height="19.685" as="geometry" />
        </mxCell>
        <mxCell id="BJZrzUYKFe9HMTDBOYGV-63" value="8" style="text;html=1;strokeColor=none;fillColor=none;align=center;verticalAlign=middle;whiteSpace=wrap;rounded=0;fontFamily=Open Sans;fontSize=18;movable=1;resizable=1;rotatable=1;deletable=1;editable=1;locked=0;connectable=1;" parent="1" vertex="1">
          <mxGeometry x="1454.6624999999997" y="19.862499999999997" width="19.685" height="19.685" as="geometry" />
        </mxCell>
        <mxCell id="BJZrzUYKFe9HMTDBOYGV-64" value="9" style="text;html=1;strokeColor=none;fillColor=none;align=center;verticalAlign=middle;whiteSpace=wrap;rounded=0;fontFamily=Open Sans;fontSize=18;movable=1;resizable=1;rotatable=1;deletable=1;editable=1;locked=0;connectable=1;" parent="1" vertex="1">
          <mxGeometry x="1651.5049999999999" y="19.86500000000001" width="19.685" height="19.685" as="geometry" />
        </mxCell>
        <mxCell id="EybZttDDo1FT70o5lfqI-4" value="" style="endArrow=none;html=1;rounded=0;movable=1;resizable=1;rotatable=1;deletable=1;editable=1;locked=0;connectable=1;" parent="1" edge="1">
          <mxGeometry width="50" height="50" relative="1" as="geometry">
            <mxPoint x="578.6799999999998" y="39.7025" as="sourcePoint" />
            <mxPoint x="578.6799999999998" y="19.702499999999993" as="targetPoint" />
          </mxGeometry>
        </mxCell>
        <mxCell id="EybZttDDo1FT70o5lfqI-5" value="3" style="text;html=1;strokeColor=none;fillColor=none;align=center;verticalAlign=middle;whiteSpace=wrap;rounded=0;fontFamily=Open Sans;fontSize=18;movable=1;resizable=1;rotatable=1;deletable=1;editable=1;locked=0;connectable=1;" parent="1" vertex="1">
          <mxGeometry x="470.4149999999999" y="19.865000000000002" width="19.685" height="19.685" as="geometry" />
        </mxCell>
        <mxCell id="EybZttDDo1FT70o5lfqI-6" value="" style="endArrow=none;html=1;rounded=0;movable=1;resizable=1;rotatable=1;deletable=1;editable=1;locked=0;connectable=1;" parent="1" edge="1">
          <mxGeometry width="50" height="50" relative="1" as="geometry">
            <mxPoint x="1759.7849999999996" y="39.7025" as="sourcePoint" />
            <mxPoint x="1759.7849999999996" y="19.702499999999993" as="targetPoint" />
          </mxGeometry>
        </mxCell>
        <mxCell id="EybZttDDo1FT70o5lfqI-7" value="10" style="text;html=1;strokeColor=none;fillColor=none;align=center;verticalAlign=middle;whiteSpace=wrap;rounded=0;fontFamily=Open Sans;fontSize=18;movable=1;resizable=1;rotatable=1;deletable=1;editable=1;locked=0;connectable=1;" parent="1" vertex="1">
          <mxGeometry x="1848.3574999999998" y="19.85750000000001" width="19.685" height="19.685" as="geometry" />
        </mxCell>
        <mxCell id="EybZttDDo1FT70o5lfqI-23" value="" style="endArrow=none;html=1;rounded=0;movable=1;resizable=1;rotatable=1;deletable=1;editable=1;locked=0;connectable=1;" parent="1" edge="1">
          <mxGeometry width="50" height="50" relative="1" as="geometry">
            <mxPoint x="19.678500000000007" y="1261.8084999999999" as="sourcePoint" />
            <mxPoint x="39.72850000000001" y="1261.8084999999999" as="targetPoint" />
          </mxGeometry>
        </mxCell>
        <mxCell id="EybZttDDo1FT70o5lfqI-24" value="F" style="text;html=1;strokeColor=none;fillColor=none;align=center;verticalAlign=middle;whiteSpace=wrap;rounded=0;fontFamily=Open Sans;fontSize=18;movable=1;resizable=1;rotatable=1;deletable=1;editable=1;locked=0;connectable=1;" parent="1" vertex="1">
          <mxGeometry x="19.6785" y="1153.5384999999999" width="19.685" height="19.685" as="geometry" />
        </mxCell>
        <mxCell id="EybZttDDo1FT70o5lfqI-25" value="" style="endArrow=none;html=1;rounded=0;movable=1;resizable=1;rotatable=1;deletable=1;editable=1;locked=0;connectable=1;" parent="1" edge="1">
          <mxGeometry width="50" height="50" relative="1" as="geometry">
            <mxPoint x="19.50100000000002" y="2049.401" as="sourcePoint" />
            <mxPoint x="39.551000000000016" y="2049.401" as="targetPoint" />
          </mxGeometry>
        </mxCell>
        <mxCell id="EybZttDDo1FT70o5lfqI-26" value="L" style="text;html=1;strokeColor=none;fillColor=none;align=center;verticalAlign=middle;whiteSpace=wrap;rounded=0;fontFamily=Open Sans;fontSize=18;movable=1;resizable=1;rotatable=1;deletable=1;editable=1;locked=0;connectable=1;" parent="1" vertex="1">
          <mxGeometry x="19.686" y="2137.9784999999997" width="19.685" height="19.685" as="geometry" />
        </mxCell>
        <mxCell id="EybZttDDo1FT70o5lfqI-41" value="" style="endArrow=none;html=1;rounded=0;movable=1;resizable=1;rotatable=1;deletable=1;editable=1;locked=0;connectable=1;" parent="1" edge="1">
          <mxGeometry width="50" height="50" relative="1" as="geometry">
            <mxPoint x="381.82699999999994" y="39.719500000000004" as="sourcePoint" />
            <mxPoint x="381.82699999999994" y="19.719499999999993" as="targetPoint" />
          </mxGeometry>
        </mxCell>
        <mxCell id="EybZttDDo1FT70o5lfqI-42" value="2" style="text;html=1;strokeColor=none;fillColor=none;align=center;verticalAlign=middle;whiteSpace=wrap;rounded=0;fontFamily=Open Sans;fontSize=18;movable=1;resizable=1;rotatable=1;deletable=1;editable=1;locked=0;connectable=1;" parent="1" vertex="1">
          <mxGeometry x="273.56200000000007" y="19.685" width="19.685" height="19.685" as="geometry" />
        </mxCell>
        <mxCell id="EybZttDDo1FT70o5lfqI-43" value="" style="endArrow=none;html=1;rounded=0;movable=1;resizable=1;rotatable=1;deletable=1;editable=1;locked=0;connectable=1;" parent="1" edge="1">
          <mxGeometry width="50" height="50" relative="1" as="geometry">
            <mxPoint x="184.97549999999987" y="39.728" as="sourcePoint" />
            <mxPoint x="184.97549999999987" y="19.72799999999999" as="targetPoint" />
          </mxGeometry>
        </mxCell>
        <mxCell id="EybZttDDo1FT70o5lfqI-44" value="1" style="text;html=1;strokeColor=none;fillColor=none;align=center;verticalAlign=middle;whiteSpace=wrap;rounded=0;fontFamily=Open Sans;fontSize=18;movable=1;resizable=1;rotatable=1;deletable=1;editable=1;locked=0;connectable=1;" parent="1" vertex="1">
          <mxGeometry x="76.7105" y="19.685" width="19.685" height="19.685" as="geometry" />
        </mxCell>
        <mxCell id="EybZttDDo1FT70o5lfqI-45" value="" style="endArrow=none;html=1;rounded=0;movable=1;resizable=1;rotatable=1;deletable=1;editable=1;locked=0;connectable=1;" parent="1" edge="1">
          <mxGeometry width="50" height="50" relative="1" as="geometry">
            <mxPoint x="1956.6334999999997" y="39.701" as="sourcePoint" />
            <mxPoint x="1956.6334999999997" y="19.70099999999999" as="targetPoint" />
          </mxGeometry>
        </mxCell>
        <mxCell id="EybZttDDo1FT70o5lfqI-46" value="11" style="text;html=1;strokeColor=none;fillColor=none;align=center;verticalAlign=middle;whiteSpace=wrap;rounded=0;fontFamily=Open Sans;fontSize=18;movable=1;resizable=1;rotatable=1;deletable=1;editable=1;locked=0;connectable=1;" parent="1" vertex="1">
          <mxGeometry x="2045.2059999999997" y="19.856000000000005" width="19.685" height="19.685" as="geometry" />
        </mxCell>
        <mxCell id="EybZttDDo1FT70o5lfqI-47" value="" style="endArrow=none;html=1;rounded=0;movable=1;resizable=1;rotatable=1;deletable=1;editable=1;locked=0;connectable=1;" parent="1" edge="1">
          <mxGeometry width="50" height="50" relative="1" as="geometry">
            <mxPoint x="2153.4819999999995" y="39.7095" as="sourcePoint" />
            <mxPoint x="2153.4819999999995" y="19.709499999999995" as="targetPoint" />
          </mxGeometry>
        </mxCell>
        <mxCell id="EybZttDDo1FT70o5lfqI-48" value="12" style="text;html=1;strokeColor=none;fillColor=none;align=center;verticalAlign=middle;whiteSpace=wrap;rounded=0;fontFamily=Open Sans;fontSize=18;movable=1;resizable=1;rotatable=1;deletable=1;editable=1;locked=0;connectable=1;" parent="1" vertex="1">
          <mxGeometry x="2242.0544999999997" y="19.86450000000001" width="19.685" height="19.685" as="geometry" />
        </mxCell>
        <mxCell id="EybZttDDo1FT70o5lfqI-95" value="" style="endArrow=none;html=1;rounded=0;movable=1;resizable=1;rotatable=1;deletable=1;editable=1;locked=0;connectable=1;" parent="1" edge="1">
          <mxGeometry width="50" height="50" relative="1" as="geometry">
            <mxPoint x="19.497000000000007" y="1064.967" as="sourcePoint" />
            <mxPoint x="39.54700000000001" y="1064.967" as="targetPoint" />
          </mxGeometry>
        </mxCell>
        <mxCell id="EybZttDDo1FT70o5lfqI-96" value="E" style="text;html=1;strokeColor=none;fillColor=none;align=center;verticalAlign=middle;whiteSpace=wrap;rounded=0;fontFamily=Open Sans;fontSize=18;movable=1;resizable=1;rotatable=1;deletable=1;editable=1;locked=0;connectable=1;" parent="1" vertex="1">
          <mxGeometry x="19.677" y="956.6970000000001" width="19.685" height="19.685" as="geometry" />
        </mxCell>
        <mxCell id="EybZttDDo1FT70o5lfqI-99" value="" style="endArrow=none;html=1;rounded=0;movable=1;resizable=1;rotatable=1;deletable=1;editable=1;locked=0;connectable=1;" parent="1" edge="1">
          <mxGeometry width="50" height="50" relative="1" as="geometry">
            <mxPoint x="19.699500000000015" y="2246.0595" as="sourcePoint" />
            <mxPoint x="39.74950000000001" y="2246.0595" as="targetPoint" />
          </mxGeometry>
        </mxCell>
        <mxCell id="EybZttDDo1FT70o5lfqI-100" value="M" style="text;html=1;strokeColor=none;fillColor=none;align=center;verticalAlign=middle;whiteSpace=wrap;rounded=0;fontFamily=Open Sans;fontSize=18;movable=1;resizable=1;rotatable=1;deletable=1;editable=1;locked=0;connectable=1;" parent="1" vertex="1">
          <mxGeometry x="19.8645" y="2334.6369999999997" width="19.685" height="19.685" as="geometry" />
        </mxCell>
        <mxCell id="WRUKcF40E02Dc5NdgmoT-67" value="" style="endArrow=none;html=1;rounded=0;movable=1;resizable=1;rotatable=1;deletable=1;editable=1;locked=0;connectable=1;" parent="1" edge="1">
          <mxGeometry width="50" height="50" relative="1" as="geometry">
            <mxPoint x="19.497000000000007" y="868.107" as="sourcePoint" />
            <mxPoint x="39.54700000000001" y="868.107" as="targetPoint" />
          </mxGeometry>
        </mxCell>
        <mxCell id="WRUKcF40E02Dc5NdgmoT-68" value="D" style="text;html=1;strokeColor=none;fillColor=none;align=center;verticalAlign=middle;whiteSpace=wrap;rounded=0;fontFamily=Open Sans;fontSize=18;movable=1;resizable=1;rotatable=1;deletable=1;editable=1;locked=0;connectable=1;" parent="1" vertex="1">
          <mxGeometry x="19.686999999999998" y="759.837" width="19.685" height="19.685" as="geometry" />
        </mxCell>
        <mxCell id="WRUKcF40E02Dc5NdgmoT-69" value="" style="endArrow=none;html=1;rounded=0;movable=1;resizable=1;rotatable=1;deletable=1;editable=1;locked=0;connectable=1;" parent="1" edge="1">
          <mxGeometry width="50" height="50" relative="1" as="geometry">
            <mxPoint x="19.495500000000003" y="671.2655" as="sourcePoint" />
            <mxPoint x="39.545500000000004" y="671.2655" as="targetPoint" />
          </mxGeometry>
        </mxCell>
        <mxCell id="WRUKcF40E02Dc5NdgmoT-70" value="C" style="text;html=1;strokeColor=none;fillColor=none;align=center;verticalAlign=middle;whiteSpace=wrap;rounded=0;fontFamily=Open Sans;fontSize=18;movable=1;resizable=1;rotatable=1;deletable=1;editable=1;locked=0;connectable=1;" parent="1" vertex="1">
          <mxGeometry x="19.6755" y="562.9955" width="19.685" height="19.685" as="geometry" />
        </mxCell>
        <mxCell id="WRUKcF40E02Dc5NdgmoT-73" value="" style="endArrow=none;html=1;rounded=0;movable=1;resizable=1;rotatable=1;deletable=1;editable=1;locked=0;connectable=1;" parent="1" edge="1">
          <mxGeometry width="50" height="50" relative="1" as="geometry">
            <mxPoint x="19.689500000000017" y="2442.8994999999995" as="sourcePoint" />
            <mxPoint x="39.739500000000014" y="2442.8994999999995" as="targetPoint" />
          </mxGeometry>
        </mxCell>
        <mxCell id="WRUKcF40E02Dc5NdgmoT-74" value="N" style="text;html=1;strokeColor=none;fillColor=none;align=center;verticalAlign=middle;whiteSpace=wrap;rounded=0;fontFamily=Open Sans;fontSize=18;movable=1;resizable=1;rotatable=1;deletable=1;editable=1;locked=0;connectable=1;" parent="1" vertex="1">
          <mxGeometry x="19.8645" y="2531.477" width="19.685" height="19.685" as="geometry" />
        </mxCell>
        <mxCell id="WRUKcF40E02Dc5NdgmoT-75" value="" style="endArrow=none;html=1;rounded=0;movable=1;resizable=1;rotatable=1;deletable=1;editable=1;locked=0;connectable=1;" parent="1" edge="1">
          <mxGeometry width="50" height="50" relative="1" as="geometry">
            <mxPoint x="19.698000000000015" y="2639.558" as="sourcePoint" />
            <mxPoint x="39.74800000000001" y="2639.558" as="targetPoint" />
          </mxGeometry>
        </mxCell>
        <mxCell id="WRUKcF40E02Dc5NdgmoT-76" value="P" style="text;html=1;strokeColor=none;fillColor=none;align=center;verticalAlign=middle;whiteSpace=wrap;rounded=0;fontFamily=Open Sans;fontSize=18;movable=1;resizable=1;rotatable=1;deletable=1;editable=1;locked=0;connectable=1;" parent="1" vertex="1">
          <mxGeometry x="19.682999999999996" y="2728.3454999999994" width="19.685" height="19.685" as="geometry" />
        </mxCell>
        <mxCell id="WjxzPE9tmQ8FQ2v2DTxy-1" value="" style="endArrow=none;html=1;rounded=0;strokeWidth=3;targetPerimeterSpacing=0;movable=1;resizable=1;rotatable=1;deletable=1;editable=1;locked=0;connectable=1;" edge="1" parent="1">
          <mxGeometry width="50" height="50" relative="1" as="geometry">
            <mxPoint x="1169.2913" y="3291.5184999999997" as="sourcePoint" />
            <mxPoint x="1169.2913" y="3251.5" as="targetPoint" />
          </mxGeometry>
        </mxCell>
        <mxCell id="WjxzPE9tmQ8FQ2v2DTxy-2" value="" style="endArrow=none;html=1;rounded=0;movable=1;resizable=1;rotatable=1;deletable=1;editable=1;locked=0;connectable=1;" edge="1" parent="1">
          <mxGeometry width="50" height="50" relative="1" as="geometry">
            <mxPoint x="1366.1484999999998" y="3291.6684999999998" as="sourcePoint" />
            <mxPoint x="1366.1484999999998" y="3271.6684999999998" as="targetPoint" />
          </mxGeometry>
        </mxCell>
        <mxCell id="WjxzPE9tmQ8FQ2v2DTxy-3" value="" style="endArrow=none;html=1;rounded=0;movable=1;resizable=1;rotatable=1;deletable=1;editable=1;locked=0;connectable=1;" edge="1" parent="1">
          <mxGeometry width="50" height="50" relative="1" as="geometry">
            <mxPoint x="1563.0009999999995" y="3291.6684999999998" as="sourcePoint" />
            <mxPoint x="1563.0009999999995" y="3271.6684999999998" as="targetPoint" />
          </mxGeometry>
        </mxCell>
        <mxCell id="WjxzPE9tmQ8FQ2v2DTxy-4" value="" style="endArrow=none;html=1;rounded=0;movable=1;resizable=1;rotatable=1;deletable=1;editable=1;locked=0;connectable=1;" edge="1" parent="1">
          <mxGeometry width="50" height="50" relative="1" as="geometry">
            <mxPoint x="972.4435" y="3291.6684999999998" as="sourcePoint" />
            <mxPoint x="972.4435" y="3271.6684999999998" as="targetPoint" />
          </mxGeometry>
        </mxCell>
        <mxCell id="WjxzPE9tmQ8FQ2v2DTxy-5" value="" style="endArrow=none;html=1;rounded=0;movable=1;resizable=1;rotatable=1;deletable=1;editable=1;locked=0;connectable=1;" edge="1" parent="1">
          <mxGeometry width="50" height="50" relative="1" as="geometry">
            <mxPoint x="775.5959999999999" y="3291.6684999999998" as="sourcePoint" />
            <mxPoint x="775.5959999999999" y="3271.6684999999998" as="targetPoint" />
          </mxGeometry>
        </mxCell>
        <mxCell id="WjxzPE9tmQ8FQ2v2DTxy-6" value="4" style="text;html=1;strokeColor=none;fillColor=none;align=center;verticalAlign=middle;whiteSpace=wrap;rounded=0;fontFamily=Open Sans;fontSize=18;movable=1;resizable=1;rotatable=1;deletable=1;editable=1;locked=0;connectable=1;" vertex="1" parent="1">
          <mxGeometry x="667.331" y="3271.8309999999997" width="19.685" height="19.685" as="geometry" />
        </mxCell>
        <mxCell id="WjxzPE9tmQ8FQ2v2DTxy-7" value="5" style="text;html=1;strokeColor=none;fillColor=none;align=center;verticalAlign=middle;whiteSpace=wrap;rounded=0;fontFamily=Open Sans;fontSize=18;movable=1;resizable=1;rotatable=1;deletable=1;editable=1;locked=0;connectable=1;" vertex="1" parent="1">
          <mxGeometry x="864.1835" y="3271.8334999999997" width="19.685" height="19.685" as="geometry" />
        </mxCell>
        <mxCell id="WjxzPE9tmQ8FQ2v2DTxy-8" value="6" style="text;html=1;strokeColor=none;fillColor=none;align=center;verticalAlign=middle;whiteSpace=wrap;rounded=0;fontFamily=Open Sans;fontSize=18;movable=1;resizable=1;rotatable=1;deletable=1;editable=1;locked=0;connectable=1;" vertex="1" parent="1">
          <mxGeometry x="1061.0259999999998" y="3271.826" width="19.685" height="19.685" as="geometry" />
        </mxCell>
        <mxCell id="WjxzPE9tmQ8FQ2v2DTxy-9" value="7" style="text;html=1;strokeColor=none;fillColor=none;align=center;verticalAlign=middle;whiteSpace=wrap;rounded=0;fontFamily=Open Sans;fontSize=18;movable=1;resizable=1;rotatable=1;deletable=1;editable=1;locked=0;connectable=1;" vertex="1" parent="1">
          <mxGeometry x="1257.8784999999998" y="3271.8284999999996" width="19.685" height="19.685" as="geometry" />
        </mxCell>
        <mxCell id="WjxzPE9tmQ8FQ2v2DTxy-10" value="8" style="text;html=1;strokeColor=none;fillColor=none;align=center;verticalAlign=middle;whiteSpace=wrap;rounded=0;fontFamily=Open Sans;fontSize=18;movable=1;resizable=1;rotatable=1;deletable=1;editable=1;locked=0;connectable=1;" vertex="1" parent="1">
          <mxGeometry x="1454.7309999999995" y="3271.821" width="19.685" height="19.685" as="geometry" />
        </mxCell>
        <mxCell id="WjxzPE9tmQ8FQ2v2DTxy-11" value="9" style="text;html=1;strokeColor=none;fillColor=none;align=center;verticalAlign=middle;whiteSpace=wrap;rounded=0;fontFamily=Open Sans;fontSize=18;movable=1;resizable=1;rotatable=1;deletable=1;editable=1;locked=0;connectable=1;" vertex="1" parent="1">
          <mxGeometry x="1651.5734999999997" y="3271.8234999999995" width="19.685" height="19.685" as="geometry" />
        </mxCell>
        <mxCell id="WjxzPE9tmQ8FQ2v2DTxy-12" value="" style="endArrow=none;html=1;rounded=0;movable=1;resizable=1;rotatable=1;deletable=1;editable=1;locked=0;connectable=1;" edge="1" parent="1">
          <mxGeometry width="50" height="50" relative="1" as="geometry">
            <mxPoint x="578.7484999999998" y="3291.661" as="sourcePoint" />
            <mxPoint x="578.7484999999998" y="3271.661" as="targetPoint" />
          </mxGeometry>
        </mxCell>
        <mxCell id="WjxzPE9tmQ8FQ2v2DTxy-13" value="3" style="text;html=1;strokeColor=none;fillColor=none;align=center;verticalAlign=middle;whiteSpace=wrap;rounded=0;fontFamily=Open Sans;fontSize=18;movable=1;resizable=1;rotatable=1;deletable=1;editable=1;locked=0;connectable=1;" vertex="1" parent="1">
          <mxGeometry x="470.4834999999998" y="3271.8234999999995" width="19.685" height="19.685" as="geometry" />
        </mxCell>
        <mxCell id="WjxzPE9tmQ8FQ2v2DTxy-14" value="" style="endArrow=none;html=1;rounded=0;movable=1;resizable=1;rotatable=1;deletable=1;editable=1;locked=0;connectable=1;" edge="1" parent="1">
          <mxGeometry width="50" height="50" relative="1" as="geometry">
            <mxPoint x="1759.8534999999995" y="3291.661" as="sourcePoint" />
            <mxPoint x="1759.8534999999995" y="3271.661" as="targetPoint" />
          </mxGeometry>
        </mxCell>
        <mxCell id="WjxzPE9tmQ8FQ2v2DTxy-15" value="10" style="text;html=1;strokeColor=none;fillColor=none;align=center;verticalAlign=middle;whiteSpace=wrap;rounded=0;fontFamily=Open Sans;fontSize=18;movable=1;resizable=1;rotatable=1;deletable=1;editable=1;locked=0;connectable=1;" vertex="1" parent="1">
          <mxGeometry x="1848.4259999999997" y="3271.816" width="19.685" height="19.685" as="geometry" />
        </mxCell>
        <mxCell id="WjxzPE9tmQ8FQ2v2DTxy-16" value="" style="endArrow=none;html=1;rounded=0;movable=1;resizable=1;rotatable=1;deletable=1;editable=1;locked=0;connectable=1;" edge="1" parent="1">
          <mxGeometry width="50" height="50" relative="1" as="geometry">
            <mxPoint x="381.8954999999999" y="3291.678" as="sourcePoint" />
            <mxPoint x="381.8954999999999" y="3271.678" as="targetPoint" />
          </mxGeometry>
        </mxCell>
        <mxCell id="WjxzPE9tmQ8FQ2v2DTxy-17" value="2" style="text;html=1;strokeColor=none;fillColor=none;align=center;verticalAlign=middle;whiteSpace=wrap;rounded=0;fontFamily=Open Sans;fontSize=18;movable=1;resizable=1;rotatable=1;deletable=1;editable=1;locked=0;connectable=1;" vertex="1" parent="1">
          <mxGeometry x="273.63050000000004" y="3271.6434999999997" width="19.685" height="19.685" as="geometry" />
        </mxCell>
        <mxCell id="WjxzPE9tmQ8FQ2v2DTxy-18" value="" style="endArrow=none;html=1;rounded=0;movable=1;resizable=1;rotatable=1;deletable=1;editable=1;locked=0;connectable=1;" edge="1" parent="1">
          <mxGeometry width="50" height="50" relative="1" as="geometry">
            <mxPoint x="185.04399999999987" y="3291.6865" as="sourcePoint" />
            <mxPoint x="185.04399999999987" y="3271.6865" as="targetPoint" />
          </mxGeometry>
        </mxCell>
        <mxCell id="WjxzPE9tmQ8FQ2v2DTxy-19" value="1" style="text;html=1;strokeColor=none;fillColor=none;align=center;verticalAlign=middle;whiteSpace=wrap;rounded=0;fontFamily=Open Sans;fontSize=18;movable=1;resizable=1;rotatable=1;deletable=1;editable=1;locked=0;connectable=1;" vertex="1" parent="1">
          <mxGeometry x="76.779" y="3271.6434999999997" width="19.685" height="19.685" as="geometry" />
        </mxCell>
        <mxCell id="WjxzPE9tmQ8FQ2v2DTxy-20" value="" style="endArrow=none;html=1;rounded=0;movable=1;resizable=1;rotatable=1;deletable=1;editable=1;locked=0;connectable=1;" edge="1" parent="1">
          <mxGeometry width="50" height="50" relative="1" as="geometry">
            <mxPoint x="1956.7019999999993" y="3291.6594999999998" as="sourcePoint" />
            <mxPoint x="1956.7019999999993" y="3271.6594999999998" as="targetPoint" />
          </mxGeometry>
        </mxCell>
        <mxCell id="WjxzPE9tmQ8FQ2v2DTxy-21" value="11" style="text;html=1;strokeColor=none;fillColor=none;align=center;verticalAlign=middle;whiteSpace=wrap;rounded=0;fontFamily=Open Sans;fontSize=18;movable=1;resizable=1;rotatable=1;deletable=1;editable=1;locked=0;connectable=1;" vertex="1" parent="1">
          <mxGeometry x="2045.2744999999995" y="3271.8144999999995" width="19.685" height="19.685" as="geometry" />
        </mxCell>
        <mxCell id="WjxzPE9tmQ8FQ2v2DTxy-22" value="" style="endArrow=none;html=1;rounded=0;movable=1;resizable=1;rotatable=1;deletable=1;editable=1;locked=0;connectable=1;" edge="1" parent="1">
          <mxGeometry width="50" height="50" relative="1" as="geometry">
            <mxPoint x="2153.5505" y="3291.6679999999997" as="sourcePoint" />
            <mxPoint x="2153.5505" y="3271.6679999999997" as="targetPoint" />
          </mxGeometry>
        </mxCell>
        <mxCell id="WjxzPE9tmQ8FQ2v2DTxy-23" value="12" style="text;html=1;strokeColor=none;fillColor=none;align=center;verticalAlign=middle;whiteSpace=wrap;rounded=0;fontFamily=Open Sans;fontSize=18;movable=1;resizable=1;rotatable=1;deletable=1;editable=1;locked=0;connectable=1;" vertex="1" parent="1">
          <mxGeometry x="2242.123" y="3271.823" width="19.685" height="19.685" as="geometry" />
        </mxCell>
        <mxCell id="WjxzPE9tmQ8FQ2v2DTxy-26" value="" style="endArrow=none;html=1;rounded=0;movable=1;resizable=1;rotatable=1;deletable=1;editable=1;locked=0;connectable=1;" edge="1" parent="1">
          <mxGeometry width="50" height="50" relative="1" as="geometry">
            <mxPoint x="19.59550000000001" y="474.41550000000007" as="sourcePoint" />
            <mxPoint x="39.64550000000001" y="474.41550000000007" as="targetPoint" />
          </mxGeometry>
        </mxCell>
        <mxCell id="WjxzPE9tmQ8FQ2v2DTxy-27" value="B" style="text;html=1;strokeColor=none;fillColor=none;align=center;verticalAlign=middle;whiteSpace=wrap;rounded=0;fontFamily=Open Sans;fontSize=18;movable=1;resizable=1;rotatable=1;deletable=1;editable=1;locked=0;connectable=1;" vertex="1" parent="1">
          <mxGeometry x="19.7755" y="366.1455000000001" width="19.685" height="19.685" as="geometry" />
        </mxCell>
        <mxCell id="WjxzPE9tmQ8FQ2v2DTxy-28" value="" style="endArrow=none;html=1;rounded=0;movable=1;resizable=1;rotatable=1;deletable=1;editable=1;locked=0;connectable=1;" edge="1" parent="1">
          <mxGeometry width="50" height="50" relative="1" as="geometry">
            <mxPoint x="19.59550000000001" y="277.55549999999994" as="sourcePoint" />
            <mxPoint x="39.64550000000001" y="277.55549999999994" as="targetPoint" />
          </mxGeometry>
        </mxCell>
        <mxCell id="WjxzPE9tmQ8FQ2v2DTxy-29" value="A" style="text;html=1;strokeColor=none;fillColor=none;align=center;verticalAlign=middle;whiteSpace=wrap;rounded=0;fontFamily=Open Sans;fontSize=18;movable=1;resizable=1;rotatable=1;deletable=1;editable=1;locked=0;connectable=1;" vertex="1" parent="1">
          <mxGeometry x="19.7855" y="169.28549999999996" width="19.685" height="19.685" as="geometry" />
        </mxCell>
        <mxCell id="WjxzPE9tmQ8FQ2v2DTxy-34" value="" style="endArrow=none;html=1;rounded=0;movable=1;resizable=1;rotatable=1;deletable=1;editable=1;locked=0;connectable=1;" edge="1" parent="1">
          <mxGeometry width="50" height="50" relative="1" as="geometry">
            <mxPoint x="19.688000000000013" y="2836.4179999999997" as="sourcePoint" />
            <mxPoint x="39.738000000000014" y="2836.4179999999997" as="targetPoint" />
          </mxGeometry>
        </mxCell>
        <mxCell id="WjxzPE9tmQ8FQ2v2DTxy-35" value="Q" style="text;html=1;strokeColor=none;fillColor=none;align=center;verticalAlign=middle;whiteSpace=wrap;rounded=0;fontFamily=Open Sans;fontSize=18;movable=1;resizable=1;rotatable=1;deletable=1;editable=1;locked=0;connectable=1;" vertex="1" parent="1">
          <mxGeometry x="19.852999999999998" y="2924.9954999999995" width="19.685" height="19.685" as="geometry" />
        </mxCell>
        <mxCell id="WjxzPE9tmQ8FQ2v2DTxy-36" value="" style="endArrow=none;html=1;rounded=0;movable=1;resizable=1;rotatable=1;deletable=1;editable=1;locked=0;connectable=1;" edge="1" parent="1">
          <mxGeometry width="50" height="50" relative="1" as="geometry">
            <mxPoint x="19.678000000000015" y="3033.2579999999994" as="sourcePoint" />
            <mxPoint x="39.728000000000016" y="3033.2579999999994" as="targetPoint" />
          </mxGeometry>
        </mxCell>
        <mxCell id="WjxzPE9tmQ8FQ2v2DTxy-37" value="R" style="text;html=1;strokeColor=none;fillColor=none;align=center;verticalAlign=middle;whiteSpace=wrap;rounded=0;fontFamily=Open Sans;fontSize=18;movable=1;resizable=1;rotatable=1;deletable=1;editable=1;locked=0;connectable=1;" vertex="1" parent="1">
          <mxGeometry x="19.673" y="3122.0454999999997" width="19.685" height="19.685" as="geometry" />
        </mxCell>
        <mxCell id="WjxzPE9tmQ8FQ2v2DTxy-40" value="" style="endArrow=none;html=1;rounded=0;strokeWidth=3;movable=1;resizable=1;rotatable=1;deletable=1;editable=1;locked=0;connectable=1;" edge="1" parent="1">
          <mxGeometry width="50" height="50" relative="1" as="geometry">
            <mxPoint x="2279.35" y="1655.512" as="sourcePoint" />
            <mxPoint x="2319.0585000000005" y="1655.512" as="targetPoint" />
          </mxGeometry>
        </mxCell>
        <mxCell id="WjxzPE9tmQ8FQ2v2DTxy-41" value="" style="endArrow=none;html=1;rounded=0;movable=1;resizable=1;rotatable=1;deletable=1;editable=1;locked=0;connectable=1;" edge="1" parent="1">
          <mxGeometry width="50" height="50" relative="1" as="geometry">
            <mxPoint x="2299.0085000000004" y="1458.6584999999998" as="sourcePoint" />
            <mxPoint x="2319.0585000000005" y="1458.6584999999998" as="targetPoint" />
          </mxGeometry>
        </mxCell>
        <mxCell id="WjxzPE9tmQ8FQ2v2DTxy-42" value="" style="endArrow=none;html=1;rounded=0;movable=1;resizable=1;rotatable=1;deletable=1;editable=1;locked=0;connectable=1;" edge="1" parent="1">
          <mxGeometry width="50" height="50" relative="1" as="geometry">
            <mxPoint x="2299.0110000000004" y="1852.3609999999996" as="sourcePoint" />
            <mxPoint x="2319.0610000000006" y="1852.3609999999996" as="targetPoint" />
          </mxGeometry>
        </mxCell>
        <mxCell id="WjxzPE9tmQ8FQ2v2DTxy-43" value="G" style="text;html=1;strokeColor=none;fillColor=none;align=center;verticalAlign=middle;whiteSpace=wrap;rounded=0;fontFamily=Open Sans;fontSize=18;movable=1;resizable=1;rotatable=1;deletable=1;editable=1;locked=0;connectable=1;" vertex="1" parent="1">
          <mxGeometry x="2299.1985000000004" y="1350.3884999999998" width="19.685" height="19.685" as="geometry" />
        </mxCell>
        <mxCell id="WjxzPE9tmQ8FQ2v2DTxy-44" value="H" style="text;html=1;strokeColor=none;fillColor=none;align=center;verticalAlign=middle;whiteSpace=wrap;rounded=0;fontFamily=Open Sans;fontSize=18;movable=1;resizable=1;rotatable=1;deletable=1;editable=1;locked=0;connectable=1;" vertex="1" parent="1">
          <mxGeometry x="2299.1910000000003" y="1547.2409999999998" width="19.685" height="19.685" as="geometry" />
        </mxCell>
        <mxCell id="WjxzPE9tmQ8FQ2v2DTxy-45" value="J" style="text;html=1;strokeColor=none;fillColor=none;align=center;verticalAlign=middle;whiteSpace=wrap;rounded=0;fontFamily=Open Sans;fontSize=18;movable=1;resizable=1;rotatable=1;deletable=1;editable=1;locked=0;connectable=1;" vertex="1" parent="1">
          <mxGeometry x="2299.1935000000003" y="1744.0934999999995" width="19.685" height="19.685" as="geometry" />
        </mxCell>
        <mxCell id="WjxzPE9tmQ8FQ2v2DTxy-46" value="K" style="text;html=1;strokeColor=none;fillColor=none;align=center;verticalAlign=middle;whiteSpace=wrap;rounded=0;fontFamily=Open Sans;fontSize=18;movable=1;resizable=1;rotatable=1;deletable=1;editable=1;locked=0;connectable=1;" vertex="1" parent="1">
          <mxGeometry x="2299.1960000000004" y="1940.9384999999997" width="19.685" height="19.685" as="geometry" />
        </mxCell>
        <mxCell id="WjxzPE9tmQ8FQ2v2DTxy-47" value="" style="endArrow=none;html=1;rounded=0;movable=1;resizable=1;rotatable=1;deletable=1;editable=1;locked=0;connectable=1;" edge="1" parent="1">
          <mxGeometry width="50" height="50" relative="1" as="geometry">
            <mxPoint x="2299.1870000000004" y="1261.8069999999998" as="sourcePoint" />
            <mxPoint x="2319.2370000000005" y="1261.8069999999998" as="targetPoint" />
          </mxGeometry>
        </mxCell>
        <mxCell id="WjxzPE9tmQ8FQ2v2DTxy-48" value="F" style="text;html=1;strokeColor=none;fillColor=none;align=center;verticalAlign=middle;whiteSpace=wrap;rounded=0;fontFamily=Open Sans;fontSize=18;movable=1;resizable=1;rotatable=1;deletable=1;editable=1;locked=0;connectable=1;" vertex="1" parent="1">
          <mxGeometry x="2299.1870000000004" y="1153.5369999999998" width="19.685" height="19.685" as="geometry" />
        </mxCell>
        <mxCell id="WjxzPE9tmQ8FQ2v2DTxy-49" value="" style="endArrow=none;html=1;rounded=0;movable=1;resizable=1;rotatable=1;deletable=1;editable=1;locked=0;connectable=1;" edge="1" parent="1">
          <mxGeometry width="50" height="50" relative="1" as="geometry">
            <mxPoint x="2299.0095000000006" y="2049.3994999999995" as="sourcePoint" />
            <mxPoint x="2319.0595000000003" y="2049.3994999999995" as="targetPoint" />
          </mxGeometry>
        </mxCell>
        <mxCell id="WjxzPE9tmQ8FQ2v2DTxy-50" value="L" style="text;html=1;strokeColor=none;fillColor=none;align=center;verticalAlign=middle;whiteSpace=wrap;rounded=0;fontFamily=Open Sans;fontSize=18;movable=1;resizable=1;rotatable=1;deletable=1;editable=1;locked=0;connectable=1;" vertex="1" parent="1">
          <mxGeometry x="2299.1945000000005" y="2137.9769999999994" width="19.685" height="19.685" as="geometry" />
        </mxCell>
        <mxCell id="WjxzPE9tmQ8FQ2v2DTxy-51" value="" style="endArrow=none;html=1;rounded=0;movable=1;resizable=1;rotatable=1;deletable=1;editable=1;locked=0;connectable=1;" edge="1" parent="1">
          <mxGeometry width="50" height="50" relative="1" as="geometry">
            <mxPoint x="2299.0055" y="1064.9655" as="sourcePoint" />
            <mxPoint x="2319.0555000000004" y="1064.9655" as="targetPoint" />
          </mxGeometry>
        </mxCell>
        <mxCell id="WjxzPE9tmQ8FQ2v2DTxy-52" value="E" style="text;html=1;strokeColor=none;fillColor=none;align=center;verticalAlign=middle;whiteSpace=wrap;rounded=0;fontFamily=Open Sans;fontSize=18;movable=1;resizable=1;rotatable=1;deletable=1;editable=1;locked=0;connectable=1;" vertex="1" parent="1">
          <mxGeometry x="2299.1855000000005" y="956.6955" width="19.685" height="19.685" as="geometry" />
        </mxCell>
        <mxCell id="WjxzPE9tmQ8FQ2v2DTxy-53" value="" style="endArrow=none;html=1;rounded=0;movable=1;resizable=1;rotatable=1;deletable=1;editable=1;locked=0;connectable=1;" edge="1" parent="1">
          <mxGeometry width="50" height="50" relative="1" as="geometry">
            <mxPoint x="2299.2080000000005" y="2246.0579999999995" as="sourcePoint" />
            <mxPoint x="2319.2580000000003" y="2246.0579999999995" as="targetPoint" />
          </mxGeometry>
        </mxCell>
        <mxCell id="WjxzPE9tmQ8FQ2v2DTxy-54" value="M" style="text;html=1;strokeColor=none;fillColor=none;align=center;verticalAlign=middle;whiteSpace=wrap;rounded=0;fontFamily=Open Sans;fontSize=18;movable=1;resizable=1;rotatable=1;deletable=1;editable=1;locked=0;connectable=1;" vertex="1" parent="1">
          <mxGeometry x="2299.3730000000005" y="2334.6354999999994" width="19.685" height="19.685" as="geometry" />
        </mxCell>
        <mxCell id="WjxzPE9tmQ8FQ2v2DTxy-55" value="" style="endArrow=none;html=1;rounded=0;movable=1;resizable=1;rotatable=1;deletable=1;editable=1;locked=0;connectable=1;" edge="1" parent="1">
          <mxGeometry width="50" height="50" relative="1" as="geometry">
            <mxPoint x="2299.0055" y="868.1054999999999" as="sourcePoint" />
            <mxPoint x="2319.0555000000004" y="868.1054999999999" as="targetPoint" />
          </mxGeometry>
        </mxCell>
        <mxCell id="WjxzPE9tmQ8FQ2v2DTxy-56" value="D" style="text;html=1;strokeColor=none;fillColor=none;align=center;verticalAlign=middle;whiteSpace=wrap;rounded=0;fontFamily=Open Sans;fontSize=18;movable=1;resizable=1;rotatable=1;deletable=1;editable=1;locked=0;connectable=1;" vertex="1" parent="1">
          <mxGeometry x="2299.1955000000003" y="759.8354999999999" width="19.685" height="19.685" as="geometry" />
        </mxCell>
        <mxCell id="WjxzPE9tmQ8FQ2v2DTxy-57" value="" style="endArrow=none;html=1;rounded=0;movable=1;resizable=1;rotatable=1;deletable=1;editable=1;locked=0;connectable=1;" edge="1" parent="1">
          <mxGeometry width="50" height="50" relative="1" as="geometry">
            <mxPoint x="2299.0040000000004" y="671.2639999999999" as="sourcePoint" />
            <mxPoint x="2319.0540000000005" y="671.2639999999999" as="targetPoint" />
          </mxGeometry>
        </mxCell>
        <mxCell id="WjxzPE9tmQ8FQ2v2DTxy-58" value="C" style="text;html=1;strokeColor=none;fillColor=none;align=center;verticalAlign=middle;whiteSpace=wrap;rounded=0;fontFamily=Open Sans;fontSize=18;movable=1;resizable=1;rotatable=1;deletable=1;editable=1;locked=0;connectable=1;" vertex="1" parent="1">
          <mxGeometry x="2299.184" y="562.9939999999999" width="19.685" height="19.685" as="geometry" />
        </mxCell>
        <mxCell id="WjxzPE9tmQ8FQ2v2DTxy-59" value="" style="endArrow=none;html=1;rounded=0;movable=1;resizable=1;rotatable=1;deletable=1;editable=1;locked=0;connectable=1;" edge="1" parent="1">
          <mxGeometry width="50" height="50" relative="1" as="geometry">
            <mxPoint x="2299.1980000000003" y="2442.8979999999992" as="sourcePoint" />
            <mxPoint x="2319.2480000000005" y="2442.8979999999992" as="targetPoint" />
          </mxGeometry>
        </mxCell>
        <mxCell id="WjxzPE9tmQ8FQ2v2DTxy-60" value="N" style="text;html=1;strokeColor=none;fillColor=none;align=center;verticalAlign=middle;whiteSpace=wrap;rounded=0;fontFamily=Open Sans;fontSize=18;movable=1;resizable=1;rotatable=1;deletable=1;editable=1;locked=0;connectable=1;" vertex="1" parent="1">
          <mxGeometry x="2299.3730000000005" y="2531.4754999999996" width="19.685" height="19.685" as="geometry" />
        </mxCell>
        <mxCell id="WjxzPE9tmQ8FQ2v2DTxy-61" value="" style="endArrow=none;html=1;rounded=0;movable=1;resizable=1;rotatable=1;deletable=1;editable=1;locked=0;connectable=1;" edge="1" parent="1">
          <mxGeometry width="50" height="50" relative="1" as="geometry">
            <mxPoint x="2299.2065000000002" y="2639.5564999999997" as="sourcePoint" />
            <mxPoint x="2319.2565000000004" y="2639.5564999999997" as="targetPoint" />
          </mxGeometry>
        </mxCell>
        <mxCell id="WjxzPE9tmQ8FQ2v2DTxy-62" value="P" style="text;html=1;strokeColor=none;fillColor=none;align=center;verticalAlign=middle;whiteSpace=wrap;rounded=0;fontFamily=Open Sans;fontSize=18;movable=1;resizable=1;rotatable=1;deletable=1;editable=1;locked=0;connectable=1;" vertex="1" parent="1">
          <mxGeometry x="2299.1915000000004" y="2728.343999999999" width="19.685" height="19.685" as="geometry" />
        </mxCell>
        <mxCell id="WjxzPE9tmQ8FQ2v2DTxy-63" value="" style="endArrow=none;html=1;rounded=0;movable=1;resizable=1;rotatable=1;deletable=1;editable=1;locked=0;connectable=1;" edge="1" parent="1">
          <mxGeometry width="50" height="50" relative="1" as="geometry">
            <mxPoint x="2299.1040000000003" y="474.4140000000001" as="sourcePoint" />
            <mxPoint x="2319.1540000000005" y="474.4140000000001" as="targetPoint" />
          </mxGeometry>
        </mxCell>
        <mxCell id="WjxzPE9tmQ8FQ2v2DTxy-64" value="B" style="text;html=1;strokeColor=none;fillColor=none;align=center;verticalAlign=middle;whiteSpace=wrap;rounded=0;fontFamily=Open Sans;fontSize=18;movable=1;resizable=1;rotatable=1;deletable=1;editable=1;locked=0;connectable=1;" vertex="1" parent="1">
          <mxGeometry x="2299.2840000000006" y="366.1440000000001" width="19.685" height="19.685" as="geometry" />
        </mxCell>
        <mxCell id="WjxzPE9tmQ8FQ2v2DTxy-65" value="" style="endArrow=none;html=1;rounded=0;movable=1;resizable=1;rotatable=1;deletable=1;editable=1;locked=0;connectable=1;" edge="1" parent="1">
          <mxGeometry width="50" height="50" relative="1" as="geometry">
            <mxPoint x="2299.1040000000003" y="277.554" as="sourcePoint" />
            <mxPoint x="2319.1540000000005" y="277.554" as="targetPoint" />
          </mxGeometry>
        </mxCell>
        <mxCell id="WjxzPE9tmQ8FQ2v2DTxy-66" value="A" style="text;html=1;strokeColor=none;fillColor=none;align=center;verticalAlign=middle;whiteSpace=wrap;rounded=0;fontFamily=Open Sans;fontSize=18;movable=1;resizable=1;rotatable=1;deletable=1;editable=1;locked=0;connectable=1;" vertex="1" parent="1">
          <mxGeometry x="2299.2940000000003" y="169.28399999999996" width="19.685" height="19.685" as="geometry" />
        </mxCell>
        <mxCell id="WjxzPE9tmQ8FQ2v2DTxy-67" value="" style="endArrow=none;html=1;rounded=0;movable=1;resizable=1;rotatable=1;deletable=1;editable=1;locked=0;connectable=1;" edge="1" parent="1">
          <mxGeometry width="50" height="50" relative="1" as="geometry">
            <mxPoint x="2299.1965000000005" y="2836.4164999999994" as="sourcePoint" />
            <mxPoint x="2319.2465000000007" y="2836.4164999999994" as="targetPoint" />
          </mxGeometry>
        </mxCell>
        <mxCell id="WjxzPE9tmQ8FQ2v2DTxy-68" value="Q" style="text;html=1;strokeColor=none;fillColor=none;align=center;verticalAlign=middle;whiteSpace=wrap;rounded=0;fontFamily=Open Sans;fontSize=18;movable=1;resizable=1;rotatable=1;deletable=1;editable=1;locked=0;connectable=1;" vertex="1" parent="1">
          <mxGeometry x="2299.1815000000006" y="2924.9939999999992" width="19.685" height="19.685" as="geometry" />
        </mxCell>
        <mxCell id="WjxzPE9tmQ8FQ2v2DTxy-69" value="" style="endArrow=none;html=1;rounded=0;movable=1;resizable=1;rotatable=1;deletable=1;editable=1;locked=0;connectable=1;" edge="1" parent="1">
          <mxGeometry width="50" height="50" relative="1" as="geometry">
            <mxPoint x="2299.1865000000003" y="3033.256499999999" as="sourcePoint" />
            <mxPoint x="2319.2365000000004" y="3033.256499999999" as="targetPoint" />
          </mxGeometry>
        </mxCell>
        <mxCell id="WjxzPE9tmQ8FQ2v2DTxy-70" value="R" style="text;html=1;strokeColor=none;fillColor=none;align=center;verticalAlign=middle;whiteSpace=wrap;rounded=0;fontFamily=Open Sans;fontSize=18;movable=1;resizable=1;rotatable=1;deletable=1;editable=1;locked=0;connectable=1;" vertex="1" parent="1">
          <mxGeometry x="2299.1815000000006" y="3122.0439999999994" width="19.685" height="19.685" as="geometry" />
        </mxCell>
        <object label="Drawing Frame" id="BJZrzUYKFe9HMTDBOYGV-83">
          <mxCell style="locked=1;" parent="0" />
        </object>
        <mxCell id="BJZrzUYKFe9HMTDBOYGV-84" value="" style="rounded=0;whiteSpace=wrap;html=1;fillColor=none;strokeWidth=3;movable=1;resizable=1;rotatable=1;deletable=1;editable=1;locked=0;connectable=1;" parent="BJZrzUYKFe9HMTDBOYGV-83" vertex="1">
          <mxGeometry x="39.3725" y="39.37" width="2259.8379999999997" height="3232.277" as="geometry" />
        </mxCell>
        <object label="Document" id="NbdiYjX3MhI7OpqD2NvG-1">
          <mxCell parent="0" />
        </object>
        <mxCell id="kxruepuoSyuf0zwoeRE9-1" value="This text is on the document layer. Lower layers have the title block and grid reference frame. These layers are locked to prevent disturbance, but you can unlock them in the &quot;Layers&quot; panel." style="text;html=1;strokeColor=none;fillColor=none;align=center;verticalAlign=middle;whiteSpace=wrap;rounded=0;fontFamily=Open Sans;movable=1;resizable=1;rotatable=1;deletable=1;editable=1;locked=0;connectable=1;" parent="NbdiYjX3MhI7OpqD2NvG-1" vertex="1">
          <mxGeometry x="196.85000000000002" y="147.64" width="330" height="70" as="geometry" />
        </mxCell>
      </root>
    </mxGraphModel>
  </diagram>
</mxfile>
